<svg width="256" height="116" viewBox="0 0 256 116" fill="none" xmlns="http://www.w3.org/2000/svg">
<path d="M7.19512 96.5H32.8049C33.7353 96.5 34.5 97.2653 34.5 98.2222V113.778C34.5 114.735 33.7353 115.5 32.8049 115.5H7.19512C6.2647 115.5 5.5 114.735 5.5 113.778V98.2222C5.5 97.2653 6.2647 96.5 7.19512 96.5Z" fill="black" stroke="#818B99"/>
<path d="M15.8333 111.833C19.055 111.833 21.6667 109.222 21.6667 106C21.6667 102.778 19.055 100.167 15.8333 100.167C12.6117 100.167 10 102.778 10 106C10 109.222 12.6117 111.833 15.8333 111.833Z" fill="#FF0000"/>
<path d="M24.1667 111.833C27.3883 111.833 30 109.222 30 106C30 102.778 27.3883 100.167 24.1667 100.167C20.945 100.167 18.3333 102.778 18.3333 106C18.3333 109.222 20.945 111.833 24.1667 111.833Z" fill="#F9A000"/>
<mask id="mask0_2846_18116" style="mask-type:alpha" maskUnits="userSpaceOnUse" x="18" y="100" width="12" height="12">
<path d="M24.1667 111.833C27.3883 111.833 30 109.222 30 106C30 102.778 27.3883 100.167 24.1667 100.167C20.945 100.167 18.3333 102.778 18.3333 106C18.3333 109.222 20.945 111.833 24.1667 111.833Z" fill="white"/>
</mask>
<g mask="url(#mask0_2846_18116)">
<mask id="mask1_2846_18116" style="mask-type:alpha" maskUnits="userSpaceOnUse" x="10" y="100" width="13" height="12">
<path d="M16.3887 111.833C19.6104 111.833 22.2221 109.222 22.2221 106C22.2221 102.778 19.6104 100.167 16.3887 100.167C13.1671 100.167 10.5554 102.778 10.5554 106C10.5554 109.222 13.1671 111.833 16.3887 111.833Z" fill="white"/>
</mask>
<g mask="url(#mask1_2846_18116)">
<path d="M16.3887 111.833C19.6104 111.833 22.2221 109.222 22.2221 106C22.2221 102.778 19.6104 100.167 16.3887 100.167C13.1671 100.167 10.5554 102.778 10.5554 106C10.5554 109.222 13.1671 111.833 16.3887 111.833Z" fill="#FF0000"/>
<path d="M24.1667 111.833C27.3883 111.833 30 109.222 30 106C30 102.778 27.3883 100.167 24.1667 100.167C20.945 100.167 18.3333 102.778 18.3333 106C18.3333 109.222 20.945 111.833 24.1667 111.833Z" fill="#FF5E00"/>
</g>
</g>
<g clip-path="url(#clip0_2846_18116)">
<mask id="mask2_2846_18116" style="mask-type:alpha" maskUnits="userSpaceOnUse" x="41" y="96" width="30" height="20">
<path d="M67.6667 96H44.3333C42.9526 96 41.8333 97.1193 41.8333 98.5V113.5C41.8333 114.881 42.9526 116 44.3333 116H67.6667C69.0474 116 70.1667 114.881 70.1667 113.5V98.5C70.1667 97.1193 69.0474 96 67.6667 96Z" fill="white"/>
</mask>
<g mask="url(#mask2_2846_18116)">
<path d="M67.6667 96H44.3333C42.9526 96 41.8333 97.1193 41.8333 98.5V113.5C41.8333 114.881 42.9526 116 44.3333 116H67.6667C69.0474 116 70.1667 114.881 70.1667 113.5V98.5C70.1667 97.1193 69.0474 96 67.6667 96Z" fill="white"/>
<path fill-rule="evenodd" clip-rule="evenodd" d="M41.8333 96.8333H70.1667V110.167H41.8333V96.8333Z" fill="#224DBA"/>
<path fill-rule="evenodd" clip-rule="evenodd" d="M41.8333 101.833H70.1667V115.167H41.8333V101.833Z" fill="#F4B519"/>
<path d="M70.1667 99.3333H41.8333V112.667H70.1667V99.3333Z" fill="white"/>
</g>
<path fill-rule="evenodd" clip-rule="evenodd" d="M50.2738 109.281H48.5059L47.1802 104.11C47.1173 103.872 46.9837 103.661 46.7872 103.562C46.2967 103.313 45.7563 103.115 45.1667 103.015V102.816H48.0146C48.4077 102.816 48.7025 103.115 48.7516 103.462L49.4394 107.193L51.2065 102.816H52.9252L50.2738 109.281ZM53.9079 109.281H52.2383L53.6131 102.816H55.2827L53.9079 109.281ZM57.4428 104.607C57.4919 104.259 57.7867 104.06 58.1307 104.06C58.6711 104.01 59.2598 104.11 59.7512 104.358L60.046 102.966C59.5546 102.767 59.0142 102.667 58.5237 102.667C56.9032 102.667 55.7241 103.562 55.7241 104.805C55.7241 105.751 56.5593 106.247 57.1489 106.546C57.7867 106.845 58.0324 107.044 57.9833 107.342C57.9833 107.789 57.492 107.988 57.0015 107.988C56.4119 107.988 55.8223 107.839 55.2827 107.59L54.9879 108.983C55.5775 109.231 56.2154 109.331 56.805 109.331C58.622 109.381 59.7512 108.486 59.7512 107.143C59.7512 105.452 57.4428 105.353 57.4428 104.607ZM65.5945 109.281L64.2687 102.816H62.8448C62.55 102.816 62.2552 103.015 62.1569 103.313L59.702 109.281H61.4208L61.7639 108.337H63.8757L64.0722 109.281H65.5945ZM63.0904 104.557L63.5809 106.994H62.2061L63.0904 104.557Z" fill="#224DBA"/>
<mask id="path-14-inside-1_2846_18116" fill="white">
<path d="M43.5 96H68.5C69.8807 96 71 97.1193 71 98.5V113.5C71 114.881 69.8807 116 68.5 116H43.5C42.1193 116 41 114.881 41 113.5V98.5C41 97.1193 42.1193 96 43.5 96ZM43.5 96.8333C42.5795 96.8333 41.8333 97.5795 41.8333 98.5V113.5C41.8333 114.42 42.5795 115.167 43.5 115.167H68.5C69.4205 115.167 70.1667 114.42 70.1667 113.5V98.5C70.1667 97.5795 69.4205 96.8333 68.5 96.8333H43.5Z"/>
</mask>
<path d="M43.5 96H68.5C69.8807 96 71 97.1193 71 98.5V113.5C71 114.881 69.8807 116 68.5 116H43.5C42.1193 116 41 114.881 41 113.5V98.5C41 97.1193 42.1193 96 43.5 96ZM43.5 96.8333C42.5795 96.8333 41.8333 97.5795 41.8333 98.5V113.5C41.8333 114.42 42.5795 115.167 43.5 115.167H68.5C69.4205 115.167 70.1667 114.42 70.1667 113.5V98.5C70.1667 97.5795 69.4205 96.8333 68.5 96.8333H43.5Z" fill="#CCCCCC"/>
<path d="M43.5 97H68.5V95H43.5V97ZM68.5 97C69.3284 97 70 97.6716 70 98.5H72C72 96.567 70.433 95 68.5 95V97ZM70 98.5V113.5H72V98.5H70ZM70 113.5C70 114.328 69.3284 115 68.5 115V117C70.433 117 72 115.433 72 113.5H70ZM68.5 115H43.5V117H68.5V115ZM43.5 115C42.6716 115 42 114.328 42 113.5H40C40 115.433 41.567 117 43.5 117V115ZM42 113.5V98.5H40V113.5H42ZM42 98.5C42 97.6716 42.6716 97 43.5 97V95C41.567 95 40 96.567 40 98.5H42ZM43.5 95.8333C42.0272 95.8333 40.8333 97.0272 40.8333 98.5H42.8333C42.8333 98.1318 43.1318 97.8333 43.5 97.8333V95.8333ZM40.8333 98.5V113.5H42.8333V98.5H40.8333ZM40.8333 113.5C40.8333 114.973 42.0272 116.167 43.5 116.167V114.167C43.1318 114.167 42.8333 113.868 42.8333 113.5H40.8333ZM43.5 116.167H68.5V114.167H43.5V116.167ZM68.5 116.167C69.9728 116.167 71.1667 114.973 71.1667 113.5H69.1667C69.1667 113.868 68.8682 114.167 68.5 114.167V116.167ZM71.1667 113.5V98.5H69.1667V113.5H71.1667ZM71.1667 98.5C71.1667 97.0272 69.9728 95.8333 68.5 95.8333V97.8333C68.8682 97.8333 69.1667 98.1318 69.1667 98.5H71.1667ZM68.5 95.8333H43.5V97.8333H68.5V95.8333Z" fill="#818B99" mask="url(#path-14-inside-1_2846_18116)"/>
</g>
<g clip-path="url(#clip1_2846_18116)">
<path d="M79.1951 96.5H104.805C105.735 96.5 106.5 97.2653 106.5 98.2222V113.778C106.5 114.735 105.735 115.5 104.805 115.5H79.1951C78.2647 115.5 77.5 114.735 77.5 113.778V98.2222C77.5 97.2653 78.2647 96.5 79.1951 96.5Z" fill="#026FCF" stroke="#818B99"/>
<path d="M83.6119 103.5L81.1667 108.494H84.094L84.4569 107.697H85.2864L85.6493 108.494H88.8715V107.886L89.1586 108.494H90.8253L91.1124 107.873V108.494H97.8136L98.6285 107.718L99.3915 108.494L102.833 108.5L100.38 106.011L102.833 103.5H99.4448L98.6516 104.261L97.9127 103.5H90.6227L89.9967 104.789L89.356 103.5H86.4348V104.087L86.1098 103.5C86.1098 103.5 83.6119 103.5 83.6119 103.5ZM84.1783 104.209H85.6053L87.2272 107.595V104.209H88.7903L90.0431 106.637L91.1976 104.209H92.753V107.792H91.8066L91.7989 104.985L90.4191 107.792H89.5726L88.1851 104.985V107.792H86.2382L85.8691 106.989H83.875L83.5067 107.792H82.4636C82.4636 107.792 84.1783 104.209 84.1783 104.209ZM93.6188 104.209H97.467L98.6439 105.382L99.8588 104.209H101.036L99.2475 106.01L101.036 107.79H99.8054L98.6285 106.603L97.4074 107.79H93.6188V104.209ZM84.8725 104.815L84.2155 106.246H85.5287L84.8725 104.815ZM94.5691 104.951V105.605H96.6684V106.334H94.5691V107.048H96.9238L98.0179 105.996L96.9702 104.95H94.5691V104.951Z" fill="white"/>
</g>
<g clip-path="url(#clip2_2846_18116)">
<path d="M115.195 96.5H140.805C141.735 96.5 142.5 97.2653 142.5 98.2222V113.778C142.5 114.735 141.735 115.5 140.805 115.5H115.195C114.265 115.5 113.5 114.735 113.5 113.778V98.2222C113.5 97.2653 114.265 96.5 115.195 96.5Z" fill="white" stroke="#818B99"/>
<path d="M120.601 103.857H119.057C118.951 103.857 118.861 103.934 118.845 104.038L118.22 107.998C118.215 108.035 118.225 108.073 118.25 108.102C118.274 108.131 118.31 108.147 118.348 108.147H119.085C119.191 108.147 119.281 108.07 119.297 107.966L119.466 106.897C119.482 106.793 119.572 106.716 119.677 106.716H120.166C121.183 106.716 121.771 106.224 121.924 105.248C121.993 104.822 121.927 104.486 121.727 104.251C121.508 103.994 121.118 103.857 120.601 103.857ZM120.78 105.304C120.695 105.858 120.272 105.858 119.862 105.858H119.629L119.793 104.823C119.803 104.76 119.857 104.714 119.92 104.714H120.027C120.306 104.714 120.569 104.714 120.705 104.873C120.786 104.968 120.81 105.109 120.78 105.304ZM125.218 105.286H124.478C124.415 105.286 124.361 105.332 124.351 105.394L124.318 105.601L124.266 105.526C124.106 105.294 123.749 105.216 123.393 105.216C122.576 105.216 121.878 105.835 121.742 106.703C121.671 107.136 121.772 107.551 122.017 107.839C122.243 108.105 122.565 108.216 122.949 108.216C123.607 108.216 123.972 107.792 123.972 107.792L123.939 107.998C123.934 108.035 123.944 108.073 123.969 108.101C123.993 108.13 124.029 108.147 124.066 108.147H124.732C124.838 108.147 124.928 108.07 124.945 107.965L125.344 105.434C125.35 105.397 125.34 105.359 125.315 105.331C125.291 105.302 125.255 105.286 125.218 105.286ZM124.187 106.725C124.115 107.147 123.78 107.431 123.352 107.431C123.138 107.431 122.966 107.362 122.856 107.232C122.747 107.102 122.705 106.918 122.74 106.712C122.806 106.293 123.147 106 123.568 106C123.778 106 123.949 106.07 124.062 106.202C124.174 106.335 124.219 106.52 124.187 106.725ZM129.156 105.286H128.413C128.342 105.286 128.275 105.321 128.235 105.38L127.21 106.89L126.776 105.439C126.748 105.348 126.665 105.286 126.57 105.286H125.84C125.798 105.286 125.759 105.306 125.735 105.339C125.71 105.373 125.704 105.417 125.717 105.456L126.536 107.858L125.766 108.944C125.739 108.984 125.735 109.035 125.757 109.078C125.779 109.121 125.823 109.148 125.871 109.148H126.614C126.684 109.148 126.75 109.113 126.79 109.056L129.262 105.488C129.289 105.448 129.292 105.397 129.27 105.355C129.248 105.312 129.204 105.286 129.156 105.286Z" fill="#253B80"/>
<path d="M131.616 103.857H130.072C129.966 103.858 129.877 103.934 129.86 104.039L129.236 107.999C129.23 108.036 129.24 108.073 129.265 108.102C129.289 108.131 129.325 108.147 129.362 108.147H130.155C130.229 108.147 130.292 108.093 130.303 108.02L130.48 106.898C130.497 106.793 130.587 106.716 130.692 106.716H131.181C132.198 106.716 132.785 106.224 132.939 105.249C133.008 104.822 132.941 104.487 132.742 104.252C132.522 103.994 132.133 103.857 131.616 103.857ZM131.795 105.304C131.71 105.858 131.287 105.858 130.877 105.858H130.645L130.808 104.823C130.818 104.76 130.872 104.714 130.935 104.714H131.042C131.321 104.714 131.584 104.714 131.72 104.873C131.801 104.968 131.826 105.109 131.795 105.304ZM136.232 105.286H135.493C135.43 105.286 135.376 105.332 135.366 105.395L135.334 105.601L135.282 105.526C135.122 105.294 134.765 105.216 134.409 105.216C133.591 105.216 132.894 105.835 132.758 106.704C132.687 107.137 132.787 107.551 133.033 107.84C133.259 108.105 133.581 108.216 133.964 108.216C134.623 108.216 134.988 107.792 134.988 107.792L134.955 107.998C134.949 108.035 134.96 108.073 134.984 108.102C135.009 108.13 135.045 108.147 135.082 108.147H135.748C135.854 108.147 135.944 108.07 135.96 107.966L136.36 105.434C136.366 105.397 136.355 105.359 136.33 105.331C136.306 105.302 136.27 105.286 136.232 105.286ZM135.202 106.725C135.131 107.148 134.795 107.431 134.367 107.431C134.153 107.431 133.981 107.362 133.871 107.232C133.761 107.102 133.72 106.918 133.755 106.712C133.822 106.293 134.162 106.001 134.583 106.001C134.793 106.001 134.964 106.07 135.076 106.202C135.19 106.335 135.234 106.521 135.202 106.725ZM137.104 103.966L136.47 107.999C136.464 108.036 136.475 108.073 136.5 108.102C136.524 108.131 136.56 108.147 136.597 108.147H137.234C137.34 108.147 137.43 108.07 137.447 107.966L138.072 104.006C138.077 103.969 138.067 103.931 138.042 103.902C138.018 103.874 137.982 103.857 137.945 103.857H137.231C137.168 103.857 137.114 103.904 137.104 103.966Z" fill="#179BD7"/>
</g>
<g clip-path="url(#clip3_2846_18116)">
<path d="M151.195 96.5H176.805C177.735 96.5 178.5 97.2653 178.5 98.2222V113.778C178.5 114.735 177.735 115.5 176.805 115.5H151.195C150.265 115.5 149.5 114.735 149.5 113.778V98.2222C149.5 97.2653 150.265 96.5 151.195 96.5Z" fill="white" stroke="#818B99"/>
<path d="M166.481 100.663H166.495C166.633 100.656 166.738 100.544 166.73 100.412C166.73 100.379 166.724 100.347 166.711 100.316C166.698 100.286 166.68 100.259 166.657 100.236C166.633 100.213 166.606 100.195 166.576 100.183C166.546 100.171 166.513 100.166 166.481 100.167L161.43 100.377L161.416 100.475L166.481 100.663Z" fill="#E72B69"/>
<path d="M167.159 101.32H167.167C167.231 101.317 167.293 101.29 167.338 101.243C167.383 101.196 167.408 101.134 167.409 101.068C167.406 101.003 167.379 100.941 167.333 100.895C167.286 100.849 167.224 100.824 167.16 100.823L161.347 101.033L161.34 101.131L167.159 101.32Z" fill="#E72B69"/>
<path d="M167.699 101.976H167.712C167.744 101.976 167.776 101.969 167.805 101.956C167.834 101.943 167.86 101.924 167.882 101.901C167.904 101.877 167.921 101.85 167.932 101.819C167.943 101.789 167.949 101.757 167.948 101.725C167.948 101.692 167.942 101.66 167.929 101.63C167.917 101.6 167.898 101.573 167.875 101.551C167.851 101.528 167.823 101.511 167.793 101.5C167.763 101.489 167.731 101.485 167.699 101.487L161.27 101.689L161.256 101.787L167.699 101.976Z" fill="#E72B69"/>
<path d="M167.961 102.633H167.975C168.007 102.632 168.039 102.625 168.068 102.612C168.097 102.599 168.123 102.581 168.145 102.557C168.167 102.534 168.184 102.506 168.195 102.476C168.206 102.446 168.212 102.414 168.21 102.381C168.21 102.349 168.204 102.317 168.191 102.287C168.178 102.257 168.16 102.231 168.136 102.208C168.113 102.186 168.085 102.169 168.055 102.158C168.025 102.147 167.993 102.142 167.961 102.144L161.187 102.347L161.173 102.445L167.961 102.633Z" fill="#E72B69"/>
<path d="M168.086 103.29H168.1C168.132 103.289 168.163 103.282 168.192 103.269C168.222 103.256 168.248 103.238 168.27 103.214C168.292 103.191 168.309 103.163 168.321 103.133C168.332 103.103 168.338 103.071 168.337 103.038C168.336 103.006 168.329 102.974 168.315 102.945C168.302 102.915 168.284 102.889 168.26 102.867C168.237 102.845 168.209 102.827 168.18 102.816C168.15 102.805 168.118 102.8 168.086 102.801L161.104 103.004L161.097 103.102L168.086 103.29Z" fill="#E72B69"/>
<path d="M167.975 103.946H167.989C168.021 103.947 168.053 103.941 168.083 103.928C168.113 103.915 168.139 103.897 168.161 103.873C168.184 103.849 168.201 103.821 168.211 103.791C168.222 103.76 168.227 103.727 168.224 103.695C168.224 103.662 168.218 103.63 168.205 103.601C168.192 103.571 168.174 103.544 168.15 103.522C168.127 103.499 168.1 103.482 168.069 103.471C168.039 103.46 168.007 103.455 167.975 103.456L161.028 103.659L161.014 103.757L167.975 103.946Z" fill="#E72B69"/>
<path d="M167.775 104.603H167.781C167.814 104.603 167.846 104.597 167.876 104.584C167.906 104.571 167.933 104.553 167.955 104.529C167.978 104.506 167.996 104.478 168.007 104.447C168.019 104.417 168.025 104.384 168.024 104.352C168.017 104.218 167.906 104.107 167.775 104.113L160.945 104.323L160.931 104.414L167.775 104.603Z" fill="#E72B69"/>
<path d="M167.242 105.26H167.256C167.287 105.259 167.319 105.251 167.348 105.238C167.377 105.225 167.403 105.206 167.425 105.183C167.446 105.16 167.464 105.132 167.475 105.102C167.486 105.072 167.491 105.04 167.491 105.008C167.49 104.975 167.483 104.944 167.47 104.914C167.457 104.885 167.438 104.859 167.415 104.836C167.392 104.814 167.365 104.797 167.335 104.786C167.305 104.774 167.274 104.769 167.242 104.77L160.869 104.98L160.855 105.07L167.242 105.26Z" fill="#E72B69"/>
<path d="M166.668 105.923H166.674C166.707 105.923 166.74 105.917 166.77 105.905C166.8 105.892 166.828 105.874 166.851 105.85C166.874 105.827 166.892 105.799 166.905 105.768C166.917 105.738 166.923 105.705 166.923 105.672C166.922 105.639 166.915 105.606 166.902 105.576C166.889 105.545 166.87 105.518 166.846 105.495C166.822 105.472 166.794 105.455 166.764 105.443C166.733 105.431 166.701 105.426 166.668 105.427L160.786 105.637L160.772 105.728L166.668 105.923Z" fill="#E72B69"/>
<path d="M167.366 106.58H167.38C167.512 106.573 167.623 106.461 167.616 106.328C167.615 106.295 167.609 106.263 167.596 106.233C167.584 106.203 167.565 106.175 167.542 106.153C167.519 106.13 167.491 106.112 167.461 106.1C167.431 106.088 167.399 106.083 167.366 106.084L160.703 106.294L160.696 106.385L167.366 106.58Z" fill="#E72B69"/>
<path d="M167.989 107.237H168.003C168.066 107.233 168.126 107.205 168.17 107.159C168.213 107.112 168.238 107.05 168.238 106.986C168.237 106.92 168.21 106.857 168.163 106.811C168.117 106.765 168.054 106.74 167.989 106.741L160.628 106.95L160.614 107.048L167.989 107.237Z" fill="#E72B69"/>
<path d="M168.301 107.893H168.315C168.446 107.885 168.557 107.774 168.55 107.642C168.55 107.609 168.544 107.576 168.531 107.546C168.518 107.516 168.5 107.489 168.477 107.466C168.453 107.443 168.426 107.425 168.396 107.413C168.366 107.401 168.333 107.396 168.301 107.397L160.544 107.607L160.53 107.704L168.301 107.893Z" fill="#E72B69"/>
<path d="M168.404 108.55H168.418C168.483 108.548 168.543 108.52 168.587 108.472C168.631 108.424 168.655 108.361 168.653 108.295C168.651 108.23 168.624 108.168 168.578 108.123C168.531 108.078 168.469 108.053 168.404 108.054L160.461 108.264L160.454 108.362L168.404 108.55Z" fill="#E72B69"/>
<path d="M168.301 109.207H168.315C168.446 109.2 168.556 109.088 168.55 108.955C168.55 108.922 168.543 108.89 168.531 108.86C168.518 108.83 168.499 108.802 168.476 108.78C168.453 108.757 168.426 108.739 168.395 108.727C168.365 108.716 168.333 108.71 168.301 108.711L160.384 108.921L160.371 109.019L168.301 109.207Z" fill="#E72B69"/>
<path d="M168.141 109.863H168.149C168.213 109.862 168.275 109.835 168.321 109.788C168.366 109.741 168.391 109.678 168.39 109.612C168.39 109.579 168.383 109.548 168.37 109.518C168.357 109.489 168.338 109.462 168.315 109.44C168.292 109.418 168.264 109.401 168.235 109.389C168.205 109.378 168.173 109.373 168.141 109.374L160.301 109.577L160.288 109.675L168.141 109.863Z" fill="#E72B69"/>
<path d="M167.927 110.52H167.941C167.972 110.519 168.004 110.512 168.033 110.499C168.062 110.486 168.088 110.467 168.11 110.444C168.132 110.42 168.149 110.393 168.16 110.363C168.171 110.333 168.177 110.3 168.176 110.268C168.176 110.236 168.169 110.204 168.156 110.174C168.143 110.144 168.125 110.118 168.101 110.095C168.078 110.073 168.051 110.056 168.021 110.045C167.991 110.034 167.959 110.029 167.927 110.03L160.225 110.233L160.211 110.331L167.927 110.52Z" fill="#E72B69"/>
<path d="M167.332 111.178H167.346C167.378 111.177 167.409 111.169 167.438 111.156C167.467 111.143 167.493 111.124 167.515 111.101C167.537 111.077 167.554 111.05 167.565 111.02C167.576 110.99 167.582 110.958 167.581 110.926C167.58 110.893 167.573 110.862 167.56 110.832C167.547 110.803 167.528 110.777 167.505 110.754C167.482 110.732 167.455 110.715 167.425 110.704C167.395 110.692 167.364 110.687 167.332 110.688L160.142 110.891L160.128 110.989L167.332 111.178Z" fill="#E72B69"/>
<path d="M166.668 111.834H166.674C166.707 111.834 166.739 111.827 166.769 111.815C166.798 111.802 166.826 111.783 166.848 111.76C166.871 111.736 166.889 111.709 166.9 111.678C166.912 111.647 166.918 111.615 166.917 111.582C166.91 111.45 166.799 111.338 166.668 111.345L160.059 111.547L160.052 111.645L166.668 111.834Z" fill="#E72B69"/>
</g>
<g clip-path="url(#clip4_2846_18116)">
<path d="M187.195 96.5H212.805C213.735 96.5 214.5 97.2653 214.5 98.2222V113.778C214.5 114.735 213.735 115.5 212.805 115.5H187.195C186.265 115.5 185.5 114.735 185.5 113.778V98.2222C185.5 97.2653 186.265 96.5 187.195 96.5Z" fill="white" stroke="#818B99"/>
<path d="M192.376 102.749C192.641 102.418 192.82 101.974 192.773 101.519C192.385 101.539 191.912 101.775 191.639 102.106C191.393 102.39 191.175 102.853 191.232 103.289C191.667 103.326 192.102 103.071 192.376 102.749Z" fill="black"/>
<path d="M192.768 103.374C192.136 103.336 191.599 103.733 191.297 103.733C190.995 103.733 190.533 103.393 190.034 103.402C189.383 103.412 188.78 103.779 188.45 104.364C187.771 105.534 188.27 107.27 188.931 108.223C189.251 108.694 189.638 109.214 190.147 109.195C190.628 109.176 190.816 108.883 191.401 108.883C191.985 108.883 192.155 109.195 192.664 109.185C193.192 109.176 193.522 108.714 193.843 108.242C194.211 107.704 194.361 107.185 194.371 107.157C194.361 107.148 193.353 106.761 193.343 105.6C193.334 104.629 194.135 104.166 194.173 104.138C193.72 103.468 193.013 103.393 192.768 103.374Z" fill="black"/>
<path d="M199.067 102.059C200.441 102.059 201.397 103.005 201.397 104.383C201.397 105.767 200.421 106.718 199.033 106.718H197.513V109.136H196.414V102.059H199.067ZM197.513 105.796H198.773C199.729 105.796 200.274 105.281 200.274 104.388C200.274 103.496 199.729 102.986 198.778 102.986H197.513V105.796Z" fill="black"/>
<path d="M201.669 107.669C201.669 106.762 202.361 106.242 203.636 106.164L205.004 106.08V105.688C205.004 105.114 204.627 104.8 203.955 104.8C203.4 104.8 202.998 105.085 202.915 105.521H201.924C201.954 104.604 202.817 103.937 203.984 103.937C205.24 103.937 206.059 104.594 206.059 105.614V109.136H205.043V108.287H205.019C204.73 108.841 204.092 109.19 203.4 109.19C202.38 109.19 201.669 108.581 201.669 107.669ZM205.004 107.213V106.816L203.783 106.894C203.096 106.938 202.738 107.193 202.738 107.64C202.738 108.071 203.111 108.351 203.695 108.351C204.44 108.351 205.004 107.875 205.004 107.213Z" fill="black"/>
<path d="M206.992 111.029V110.181C207.061 110.191 207.227 110.2 207.316 110.2C207.801 110.2 208.076 109.995 208.243 109.465L208.341 109.151L206.482 104.001H207.63L208.924 108.18H208.949L210.244 104.001H211.362L209.434 109.411C208.993 110.652 208.488 111.059 207.419 111.059C207.335 111.059 207.066 111.049 206.992 111.029Z" fill="black"/>
</g>
<g clip-path="url(#clip5_2846_18116)">
<path d="M223.195 96.5H248.805C249.735 96.5 250.5 97.2653 250.5 98.2222V113.778C250.5 114.735 249.735 115.5 248.805 115.5H223.195C222.265 115.5 221.5 114.735 221.5 113.778V98.2222C221.5 97.2653 222.265 96.5 223.195 96.5Z" fill="white" stroke="#818B99"/>
<path fill-rule="evenodd" clip-rule="evenodd" d="M236.445 104.379V100.176C230.919 100.172 227.678 102.615 227.676 105.998C227.676 106.095 227.68 106.19 227.686 106.285C227.684 106.252 227.681 106.22 227.678 106.187C227.673 106.124 227.667 106.062 227.667 105.999C227.661 105.181 227.865 104.376 228.261 103.658C228.655 102.946 229.234 102.325 229.984 101.809C231.545 100.735 233.775 100.167 236.431 100.167H236.453V100.172V104.385H236.443L235.137 104.358C232.285 104.456 229.106 105.678 229.106 107.274C229.106 108.149 229.852 109.132 231.101 109.904C232.434 110.728 234.171 111.202 235.867 111.202H235.871C237.343 111.202 238.701 110.681 239.695 109.732C240.196 109.254 240.592 108.678 240.859 108.041C241.147 107.345 241.292 106.598 241.287 105.845C241.287 104.25 240.837 102.963 239.946 102.018C239.198 101.225 238.148 100.673 236.822 100.379H236.815V100.185H236.825C238.898 100.292 240.808 100.957 242.204 102.06C243.577 103.144 244.333 104.547 244.333 106.01C244.333 106.076 244.328 106.14 244.322 106.204L244.322 106.204L244.322 106.204L244.322 106.204L244.322 106.204C244.319 106.237 244.316 106.271 244.314 106.304C244.32 106.206 244.324 106.109 244.324 106.01C244.326 103.026 241.155 100.418 236.826 100.194V100.371C239.205 100.9 241.297 102.396 241.297 105.847C241.297 109.072 238.856 111.217 235.868 111.215C232.174 111.212 229.098 109.064 229.098 107.278C229.098 105.655 232.34 104.448 235.139 104.353L236.445 104.379ZM227.688 106.311V106.286C227.687 106.294 227.688 106.304 227.688 106.311ZM244.313 106.304C244.313 106.314 244.313 106.324 244.312 106.335L244.311 106.347L244.312 106.327L244.313 106.304ZM244.234 106.901C244.229 106.926 244.224 106.952 244.218 106.978V106.977C244.225 106.949 244.23 106.922 244.236 106.894L244.234 106.901ZM244.309 106.37C244.295 106.545 244.27 106.719 244.236 106.892C244.271 106.719 244.295 106.545 244.309 106.37ZM234.003 109.892C233.446 109.495 232.782 108.808 232.782 107.768H232.783C232.783 106.925 233.177 106.135 233.89 105.542C234.565 104.984 235.486 104.644 236.417 104.609H236.427V104.619L236.426 110.742H236.416C235.571 110.681 234.669 110.364 234.003 109.892ZM242.191 102.074C243.56 103.156 244.314 104.553 244.314 106.01C244.313 107.635 243.447 109.122 241.874 110.198C240.333 111.254 238.246 111.834 235.995 111.834H235.986C233.763 111.833 231.674 111.223 230.11 110.122C228.545 109.021 227.684 107.556 227.684 105.999C227.678 105.184 227.883 104.381 228.278 103.666C228.669 102.96 229.247 102.339 229.994 101.825C231.553 100.753 233.778 100.186 236.43 100.187H236.433V104.371L235.136 104.345C232.275 104.443 229.086 105.672 229.086 107.28C229.086 108.162 229.835 109.15 231.09 109.926C231.762 110.334 232.488 110.649 233.247 110.861C234.099 111.103 234.981 111.226 235.867 111.227H235.872C237.349 111.227 238.712 110.703 239.709 109.75C240.212 109.27 240.61 108.692 240.877 108.053C241.167 107.353 241.313 106.603 241.307 105.848C241.307 104.249 240.855 102.956 239.961 102.007C239.213 101.213 238.161 100.659 236.835 100.365V100.204C238.898 100.314 240.801 100.976 242.191 102.074Z" fill="#1D1D1B"/>
</g>
<path d="M0 3.58334C0 1.60431 1.63736 0 3.65714 0H252.343C254.363 0 256 1.60431 256 3.58333V82.4167C256 84.3957 254.363 86 252.343 86H3.65714C1.63735 86 0 84.3957 0 82.4167V3.58334Z" fill="#7A04DD"/>
<path d="M137.695 24.5771H132.766V39.3724H137.695V24.5771Z" fill="white"/>
<path d="M131.197 27.7523H124.223L120.147 31.772H125.74C125.007 33.3934 123.37 34.525 121.46 34.525C118.868 34.525 116.771 32.4476 116.771 29.8804C116.771 27.3132 118.868 25.2358 121.46 25.2358C122.398 25.2358 123.268 25.506 124.001 25.9789L127.77 22.2463C126.047 20.8445 123.848 20 121.426 20C115.918 20 111.45 24.4251 111.45 29.8804C111.45 35.3357 115.918 39.7607 121.426 39.7607C126.934 39.7607 131.402 35.3357 131.402 29.8804C131.436 29.1541 131.351 28.4279 131.197 27.7523Z" fill="white"/>
<path d="M137.695 20.3379H132.766V23.3273H137.695V20.3379Z" fill="white"/>
<path d="M148.813 39.4737H144.55L144.516 39.3724L138.667 24.5771H143.936L146.716 32.7855L149.512 24.5771H154.696L148.813 39.4737Z" fill="white"/>
<path d="M160.546 24.5771H155.6V39.3724H160.546V24.5771Z" fill="white"/>
<path d="M160.546 20.3379H155.6V23.3273H160.546V20.3379Z" fill="white"/>
<path d="M175.842 39.3723H170.914V31.164C170.914 29.627 170.266 28.8332 169.004 28.8332C167.367 28.8332 167.026 30.0999 167.026 31.164V39.3723H162.08V24.5771H165.491L166.838 25.9113C167.913 24.8304 169.14 24.3237 170.607 24.3237C173.83 24.3237 175.825 26.4687 175.825 29.931L175.842 39.3723Z" fill="white"/>
<path d="M63.6165 39.6257C61.0416 39.6257 58.9099 38.663 57.2728 36.7545L57 36.4336L60.3424 33.1233L60.53 33.3259C61.5872 34.4744 62.474 34.9642 63.4972 34.9642C64.8273 34.9642 65.4583 34.1704 65.4583 32.4646V20.3379H70.5742V32.6335C70.5742 37.0754 68.0333 39.6257 63.6165 39.6257Z" fill="white"/>
<path d="M189.263 24.5771L188.001 25.8269C186.807 24.7967 185.477 24.3069 183.823 24.3069C180.48 24.3069 177.087 26.7052 177.087 31.2823V31.3329C177.087 35.9269 180.48 38.3252 183.823 38.3252C185.409 38.3252 186.654 37.8861 187.796 36.9065C187.592 38.6461 186.517 39.8115 184.386 39.8115C183.107 39.8115 181.998 39.575 180.839 39.0683L177.616 42.2604L178.059 42.4969C179.935 43.4765 182.152 44.0001 184.488 44.0001C190.167 44.0001 192.81 41.1288 192.81 35.7918V24.5771H189.263ZM188.154 31.3498C188.154 33.0557 186.824 34.2886 184.982 34.2886C183.124 34.2886 181.845 33.0725 181.845 31.3498V31.2991C181.845 29.5933 183.175 28.3604 184.982 28.3604C186.824 28.3604 188.154 29.5933 188.154 31.2991V31.3498Z" fill="white"/>
<path d="M77.4464 39.6257C74.2234 39.6257 72.2282 37.4807 72.2282 34.0015V24.5771H77.1565V32.7686C77.1565 34.3224 77.8046 35.0993 79.0665 35.0993C80.7206 35.0993 81.0617 33.8326 81.0617 32.7686V24.5771H86.007V39.3724H82.5794L81.2322 38.0381C80.1408 39.1021 78.913 39.6257 77.4464 39.6257Z" fill="white"/>
<path d="M106.402 39.5919C103.35 39.5919 101.849 38.0719 101.849 34.9473V28.9009H100.178V24.5772H101.849V20.3379H106.778V24.5772H110.052V28.9009H106.778V34.3224C106.778 34.9811 106.965 35.1838 107.562 35.1838C108.176 35.1838 108.756 35.0487 109.284 34.7446L110.001 34.3562V38.5955L109.762 38.7306C108.756 39.3217 107.698 39.5919 106.402 39.5919Z" fill="white"/>
<path d="M94.8746 30.2689L94.4142 30.1169C93.2716 29.7284 92.1632 29.3738 92.1632 28.884V28.8333C92.1632 28.3604 92.76 28.1746 93.3398 28.1746C94.1243 28.1746 95.1986 28.4955 96.3411 29.0698L99.189 26.2492L98.9673 26.0972C97.3643 25.0332 95.3009 24.3914 93.4251 24.3914C90.0827 24.3914 87.8317 26.3337 87.8317 29.2386V29.2893C87.8317 32.1774 90.1168 33.2246 92.3507 33.8833C92.5383 33.9339 92.7259 34.0015 92.8964 34.0522C94.0731 34.39 95.0963 34.694 95.0963 35.2175V35.2682C95.0963 35.8593 94.3459 35.9945 93.715 35.9945C92.5213 35.9945 91.0888 35.4878 89.7416 34.6095L87.0302 37.2949L86.9961 37.3456L87.2349 37.5314C89.0766 38.967 91.3276 39.7608 93.6127 39.7608C97.262 39.7608 99.4448 37.9199 99.4448 34.8291V34.7784C99.4448 31.7721 96.4776 30.7925 94.8746 30.2689Z" fill="white"/>
<path d="M193.867 25.2527H194.566V26.9417H195.368V25.2527H196.067V24.5771H193.867V25.2527Z" fill="white"/>
<path d="M198.181 24.5771L197.653 25.4047L197.141 24.5771H196.323V26.9417H197.107V25.7594L197.465 26.3168H197.84L198.216 25.7594V26.9417H199V24.5771H198.181Z" fill="white"/>
<path d="M34.9137 59.7598C34.8134 60.8216 34.4215 61.651 33.7379 62.248C33.0543 62.8405 32.1451 63.1367 31.0104 63.1367C30.2174 63.1367 29.5178 62.9499 28.9117 62.5762C28.3102 62.1979 27.8453 61.6624 27.5172 60.9697C27.1891 60.277 27.0182 59.4727 27.0045 58.5566V57.627C27.0045 56.6882 27.1708 55.861 27.5035 55.1455C27.8362 54.43 28.3124 53.8786 28.9322 53.4912C29.5566 53.1038 30.2766 52.9102 31.0924 52.9102C32.1907 52.9102 33.0748 53.2087 33.7447 53.8057C34.4146 54.4027 34.8043 55.2458 34.9137 56.335H33.191C33.109 55.6195 32.8994 55.1045 32.5621 54.79C32.2294 54.471 31.7395 54.3115 31.0924 54.3115C30.3404 54.3115 29.7617 54.5872 29.3561 55.1387C28.955 55.6855 28.7499 56.4899 28.7408 57.5518V58.4336C28.7408 59.5091 28.9322 60.3294 29.315 60.8945C29.7024 61.4596 30.2675 61.7422 31.0104 61.7422C31.6894 61.7422 32.1998 61.5895 32.5416 61.2842C32.8834 60.9788 33.0999 60.4707 33.191 59.7598H34.9137ZM38.082 56.4102C38.6243 55.7812 39.3102 55.4668 40.1396 55.4668C41.7164 55.4668 42.5162 56.3669 42.539 58.167V63H40.8779V58.2285C40.8779 57.7181 40.7662 57.3581 40.5429 57.1484C40.3242 56.9342 40.0006 56.8271 39.5722 56.8271C38.9069 56.8271 38.4101 57.1234 38.082 57.7158V63H36.4209V52.5H38.082V56.4102ZM48.7835 63C48.7106 62.8587 48.6468 62.6286 48.5921 62.3096C48.0635 62.861 47.4163 63.1367 46.6507 63.1367C45.9079 63.1367 45.3017 62.9248 44.8323 62.501C44.3629 62.0771 44.1282 61.5531 44.1282 60.9287C44.1282 60.1403 44.4199 59.5365 45.0032 59.1172C45.5911 58.6934 46.4297 58.4814 47.5189 58.4814H48.5374V57.9961C48.5374 57.6133 48.4303 57.3079 48.2161 57.0801C48.0019 56.8477 47.6761 56.7314 47.2386 56.7314C46.8603 56.7314 46.5504 56.8271 46.3089 57.0186C46.0674 57.2054 45.9466 57.4447 45.9466 57.7363H44.2855C44.2855 57.3307 44.4199 56.9525 44.6888 56.6016C44.9577 56.2461 45.3223 55.9681 45.7825 55.7676C46.2474 55.5671 46.7646 55.4668 47.3343 55.4668C48.2002 55.4668 48.8906 55.6855 49.4056 56.123C49.9206 56.556 50.1849 57.1667 50.1986 57.9551V61.291C50.1986 61.9564 50.292 62.4873 50.4788 62.8838V63H48.7835ZM46.9583 61.8037C47.2864 61.8037 47.5941 61.724 47.8812 61.5645C48.1728 61.4049 48.3916 61.1908 48.5374 60.9219V59.5273H47.6419C47.0267 59.5273 46.5641 59.6344 46.2542 59.8486C45.9443 60.0628 45.7894 60.3659 45.7894 60.7578C45.7894 61.0768 45.8942 61.332 46.1038 61.5234C46.318 61.7103 46.6029 61.8037 46.9583 61.8037ZM55.9509 57.1211C55.7321 57.0846 55.5065 57.0664 55.2741 57.0664C54.513 57.0664 54.0003 57.3581 53.736 57.9414V63H52.0749V55.6035H53.6608L53.7018 56.4307C54.1029 55.7881 54.6589 55.4668 55.3698 55.4668C55.6068 55.4668 55.8027 55.4987 55.9577 55.5625L55.9509 57.1211ZM58.9073 63H57.2461V55.6035H58.9073V63ZM57.1436 53.6826C57.1436 53.4274 57.2233 53.2155 57.3829 53.0469C57.5469 52.8783 57.7793 52.7939 58.0801 52.7939C58.3809 52.7939 58.6133 52.8783 58.7774 53.0469C58.9414 53.2155 59.0235 53.4274 59.0235 53.6826C59.0235 53.9333 58.9414 54.1429 58.7774 54.3115C58.6133 54.4756 58.3809 54.5576 58.0801 54.5576C57.7793 54.5576 57.5469 54.4756 57.3829 54.3115C57.2233 54.1429 57.1436 53.9333 57.1436 53.6826ZM62.9438 53.8057V55.6035H64.2494V56.834H62.9438V60.9629C62.9438 61.2454 62.9984 61.4505 63.1078 61.5781C63.2217 61.7012 63.4223 61.7627 63.7094 61.7627C63.9008 61.7627 64.0945 61.7399 64.2904 61.6943V62.9795C63.9122 63.0843 63.5476 63.1367 63.1967 63.1367C61.9206 63.1367 61.2826 62.4326 61.2826 61.0244V56.834H60.0658V55.6035H61.2826V53.8057H62.9438ZM68.2517 60.6211L69.7556 55.6035H71.5261L68.5867 64.1211C68.1355 65.3652 67.3699 65.9873 66.2898 65.9873C66.0483 65.9873 65.7817 65.9463 65.49 65.8643V64.5791L65.8045 64.5996C66.2237 64.5996 66.5382 64.5221 66.7478 64.3672C66.962 64.2168 67.1306 63.9616 67.2537 63.6016L67.4929 62.9658L64.8953 55.6035H66.6863L68.2517 60.6211ZM75.9624 59.2471C75.9624 58.0986 76.2313 57.1826 76.769 56.499C77.3113 55.8109 78.0291 55.4668 78.9223 55.4668C79.7654 55.4668 80.4285 55.7607 80.9116 56.3486L80.9868 55.6035H82.4839V62.7744C82.4839 63.7451 82.1808 64.5107 81.5747 65.0713C80.9731 65.6318 80.1596 65.9121 79.1343 65.9121C78.5919 65.9121 78.061 65.7982 77.5415 65.5703C77.0265 65.347 76.6346 65.0531 76.3657 64.6885L77.1518 63.6904C77.6623 64.2965 78.2912 64.5996 79.0386 64.5996C79.59 64.5996 80.0252 64.4492 80.3442 64.1484C80.6632 63.8522 80.8227 63.4147 80.8227 62.8359V62.3369C80.3442 62.8701 79.7062 63.1367 78.9087 63.1367C78.0428 63.1367 77.3341 62.7926 76.7827 62.1045C76.2358 61.4163 75.9624 60.4639 75.9624 59.2471ZM77.6167 59.3906C77.6167 60.1335 77.7671 60.7191 78.0679 61.1475C78.3732 61.5713 78.7947 61.7832 79.3325 61.7832C80.0024 61.7832 80.4992 61.4961 80.8227 60.9219V57.668C80.5083 57.1074 80.0161 56.8271 79.3462 56.8271C78.7993 56.8271 78.3732 57.0436 78.0679 57.4766C77.7671 57.9095 77.6167 58.5475 77.6167 59.3906ZM87.5936 63.1367C86.5409 63.1367 85.6864 62.8063 85.0301 62.1455C84.3784 61.4801 84.0526 60.596 84.0526 59.4932V59.2881C84.0526 58.5498 84.1939 57.8913 84.4764 57.3125C84.7635 56.7292 85.1646 56.2757 85.6795 55.9521C86.1945 55.6286 86.7687 55.4668 87.4022 55.4668C88.4093 55.4668 89.1864 55.7881 89.7332 56.4307C90.2847 57.0732 90.5604 57.9824 90.5604 59.1582V59.8281H85.7274C85.7775 60.4388 85.9803 60.9219 86.3358 61.2773C86.6958 61.6328 87.147 61.8105 87.6893 61.8105C88.4504 61.8105 89.0702 61.5029 89.5487 60.8877L90.4442 61.7422C90.148 62.1842 89.7515 62.5283 89.2547 62.7744C88.7625 63.016 88.2088 63.1367 87.5936 63.1367ZM87.3954 56.7998C86.9396 56.7998 86.5705 56.9593 86.2879 57.2783C86.0099 57.5973 85.8322 58.0417 85.7547 58.6113H88.9198V58.4883C88.8833 57.9323 88.7352 57.513 88.4754 57.2305C88.2157 56.9434 87.8556 56.7998 87.3954 56.7998ZM94.0773 53.8057V55.6035H95.383V56.834H94.0773V60.9629C94.0773 61.2454 94.132 61.4505 94.2414 61.5781C94.3553 61.7012 94.5559 61.7627 94.843 61.7627C95.0344 61.7627 95.2281 61.7399 95.424 61.6943V62.9795C95.0458 63.0843 94.6812 63.1367 94.3303 63.1367C93.0542 63.1367 92.4162 62.4326 92.4162 61.0244V56.834H91.1994V55.6035H92.4162V53.8057H94.0773ZM100.944 60.9902C100.944 60.694 100.821 60.4684 100.575 60.3135C100.333 60.1585 99.9299 60.0218 99.3648 59.9033C98.7997 59.7848 98.328 59.6344 97.9498 59.4521C97.1203 59.0511 96.7056 58.4701 96.7056 57.709C96.7056 57.071 96.9745 56.5378 97.5123 56.1094C98.05 55.681 98.7336 55.4668 99.563 55.4668C100.447 55.4668 101.16 55.6855 101.703 56.123C102.25 56.5605 102.523 57.1279 102.523 57.8252H100.862C100.862 57.5062 100.743 57.2419 100.506 57.0322C100.269 56.818 99.955 56.7109 99.563 56.7109C99.1985 56.7109 98.9 56.7952 98.6675 56.9639C98.4397 57.1325 98.3257 57.3581 98.3257 57.6406C98.3257 57.8958 98.4328 58.0941 98.647 58.2354C98.8612 58.3766 99.2942 58.5202 99.9459 58.666C100.598 58.8073 101.108 58.9782 101.477 59.1787C101.851 59.3747 102.127 59.6117 102.304 59.8896C102.487 60.1676 102.578 60.5049 102.578 60.9014C102.578 61.5667 102.302 62.1068 101.751 62.5215C101.199 62.9316 100.477 63.1367 99.5836 63.1367C98.9774 63.1367 98.4374 63.0273 97.9634 62.8086C97.4895 62.5898 97.1203 62.2891 96.856 61.9062C96.5917 61.5234 96.4595 61.111 96.4595 60.6689H98.0728C98.0956 61.0609 98.2437 61.3639 98.5172 61.5781C98.7906 61.7878 99.1529 61.8926 99.6041 61.8926C100.042 61.8926 100.374 61.8105 100.602 61.6465C100.83 61.4779 100.944 61.2591 100.944 60.9902ZM112.189 63H110.534V55.0088L108.094 55.8428V54.4414L111.977 53.0127H112.189V63ZM122.275 58.8096C122.275 60.2406 122.006 61.3206 121.468 62.0498C120.935 62.7744 120.122 63.1367 119.028 63.1367C117.952 63.1367 117.141 62.7835 116.594 62.0771C116.052 61.3662 115.774 60.3158 115.76 58.9258V57.2031C115.76 55.7721 116.027 54.6989 116.56 53.9834C117.098 53.2679 117.916 52.9102 119.014 52.9102C120.103 52.9102 120.915 53.2588 121.448 53.9561C121.986 54.6533 122.261 55.6969 122.275 57.0869V58.8096ZM120.614 56.9502C120.614 56.016 120.486 55.3324 120.231 54.8994C119.976 54.4619 119.57 54.2432 119.014 54.2432C118.472 54.2432 118.073 54.4505 117.818 54.8652C117.563 55.2754 117.428 55.918 117.415 56.793V59.0488C117.415 59.9785 117.545 60.6712 117.804 61.127C118.064 61.5827 118.472 61.8105 119.028 61.8105C119.561 61.8105 119.955 61.6009 120.211 61.1816C120.466 60.7578 120.6 60.097 120.614 59.1992V56.9502ZM130.372 58.8096C130.372 60.2406 130.103 61.3206 129.565 62.0498C129.032 62.7744 128.219 63.1367 127.125 63.1367C126.049 63.1367 125.238 62.7835 124.691 62.0771C124.149 61.3662 123.871 60.3158 123.857 58.9258V57.2031C123.857 55.7721 124.124 54.6989 124.657 53.9834C125.195 53.2679 126.013 52.9102 127.111 52.9102C128.201 52.9102 129.012 53.2588 129.545 53.9561C130.083 54.6533 130.358 55.6969 130.372 57.0869V58.8096ZM128.711 56.9502C128.711 56.016 128.583 55.3324 128.328 54.8994C128.073 54.4619 127.667 54.2432 127.111 54.2432C126.569 54.2432 126.17 54.4505 125.915 54.8652C125.66 55.2754 125.525 55.918 125.512 56.793V59.0488C125.512 59.9785 125.642 60.6712 125.901 61.127C126.161 61.5827 126.569 61.8105 127.125 61.8105C127.658 61.8105 128.052 61.6009 128.308 61.1816C128.563 60.7578 128.697 60.097 128.711 59.1992V56.9502ZM131.913 54.9609C131.913 54.3594 132.107 53.8672 132.494 53.4844C132.882 53.097 133.39 52.9033 134.019 52.9033C134.657 52.9033 135.167 53.097 135.55 53.4844C135.938 53.8672 136.131 54.3708 136.131 54.9951V55.4873C136.131 56.0843 135.938 56.5742 135.55 56.957C135.167 57.3398 134.661 57.5312 134.033 57.5312C133.417 57.5312 132.909 57.3444 132.508 56.9707C132.112 56.5924 131.913 56.0843 131.913 55.4463V54.9609ZM133.076 55.4873C133.076 55.8018 133.162 56.057 133.335 56.2529C133.513 56.4443 133.745 56.54 134.033 56.54C134.315 56.54 134.543 56.4443 134.716 56.2529C134.889 56.057 134.976 55.7926 134.976 55.46V54.9609C134.976 54.6465 134.887 54.3913 134.709 54.1953C134.536 53.9993 134.306 53.9014 134.019 53.9014C133.732 53.9014 133.502 54.0016 133.328 54.2021C133.16 54.3981 133.076 54.6579 133.076 54.9814V55.4873ZM136.699 60.5596C136.699 59.9489 136.897 59.4544 137.293 59.0762C137.69 58.6979 138.196 58.5088 138.811 58.5088C139.431 58.5088 139.937 58.6979 140.328 59.0762C140.725 59.4544 140.923 59.9648 140.923 60.6074V61.0928C140.923 61.6852 140.732 62.1751 140.349 62.5625C139.971 62.9453 139.463 63.1367 138.825 63.1367C138.187 63.1367 137.672 62.9476 137.28 62.5693C136.892 62.1865 136.699 61.6829 136.699 61.0586V60.5596ZM137.861 61.0928C137.861 61.4027 137.95 61.6579 138.127 61.8584C138.31 62.0544 138.542 62.1523 138.825 62.1523C139.116 62.1523 139.344 62.0589 139.508 61.8721C139.677 61.6807 139.761 61.4141 139.761 61.0723V60.5596C139.761 60.2406 139.672 59.9854 139.494 59.7939C139.317 59.6025 139.089 59.5068 138.811 59.5068C138.528 59.5068 138.298 59.6025 138.12 59.7939C137.947 59.9854 137.861 60.2497 137.861 60.5869V61.0928ZM134.374 62.2549L133.52 61.7627L138.38 53.9834L139.235 54.4756L134.374 62.2549ZM145.824 59.2334C145.824 58.5088 145.968 57.8571 146.255 57.2783C146.542 56.695 146.945 56.2484 147.465 55.9385C147.984 55.624 148.581 55.4668 149.256 55.4668C150.254 55.4668 151.063 55.7881 151.683 56.4307C152.307 57.0732 152.644 57.9255 152.694 58.9873L152.701 59.377C152.701 60.1061 152.56 60.7578 152.277 61.332C151.999 61.9062 151.598 62.3506 151.074 62.665C150.555 62.9795 149.953 63.1367 149.27 63.1367C148.226 63.1367 147.39 62.7904 146.761 62.0977C146.136 61.4004 145.824 60.473 145.824 59.3154V59.2334ZM147.485 59.377C147.485 60.138 147.643 60.735 147.957 61.168C148.272 61.5964 148.709 61.8105 149.27 61.8105C149.83 61.8105 150.265 61.5918 150.575 61.1543C150.89 60.7168 151.047 60.0765 151.047 59.2334C151.047 58.486 150.885 57.8936 150.562 57.4561C150.243 57.0186 149.807 56.7998 149.256 56.7998C148.714 56.7998 148.283 57.0163 147.964 57.4492C147.645 57.8776 147.485 58.5202 147.485 59.377ZM154.831 63V56.834H153.703V55.6035H154.831V54.9268C154.831 54.1064 155.058 53.473 155.514 53.0264C155.97 52.5798 156.608 52.3564 157.428 52.3564C157.72 52.3564 158.03 52.3975 158.358 52.4795L158.317 53.7783C158.135 53.7419 157.923 53.7236 157.681 53.7236C156.888 53.7236 156.492 54.1315 156.492 54.9473V55.6035H157.996V56.834H156.492V63H154.831ZM167.395 63C167.322 62.8587 167.258 62.6286 167.203 62.3096C166.675 62.861 166.027 63.1367 165.262 63.1367C164.519 63.1367 163.913 62.9248 163.444 62.501C162.974 62.0771 162.739 61.5531 162.739 60.9287C162.739 60.1403 163.031 59.5365 163.614 59.1172C164.202 58.6934 165.041 58.4814 166.13 58.4814H167.149V57.9961C167.149 57.6133 167.041 57.3079 166.827 57.0801C166.613 56.8477 166.287 56.7314 165.85 56.7314C165.472 56.7314 165.162 56.8271 164.92 57.0186C164.679 57.2054 164.558 57.4447 164.558 57.7363H162.897C162.897 57.3307 163.031 56.9525 163.3 56.6016C163.569 56.2461 163.933 55.9681 164.394 55.7676C164.859 55.5671 165.376 55.4668 165.945 55.4668C166.811 55.4668 167.502 55.6855 168.017 56.123C168.532 56.556 168.796 57.1667 168.81 57.9551V61.291C168.81 61.9564 168.903 62.4873 169.09 62.8838V63H167.395ZM165.569 61.8037C165.898 61.8037 166.205 61.724 166.492 61.5645C166.784 61.4049 167.003 61.1908 167.149 60.9219V59.5273H166.253C165.638 59.5273 165.175 59.6344 164.865 59.8486C164.555 60.0628 164.401 60.3659 164.401 60.7578C164.401 61.0768 164.505 61.332 164.715 61.5234C164.929 61.7103 165.214 61.8037 165.569 61.8037ZM174.005 59.2471C174.005 58.1077 174.269 57.194 174.798 56.5059C175.326 55.8132 176.035 55.4668 176.924 55.4668C177.708 55.4668 178.341 55.7402 178.824 56.2871V52.5H180.485V63H178.981L178.899 62.2344C178.403 62.8359 177.739 63.1367 176.91 63.1367C176.044 63.1367 175.342 62.7881 174.805 62.0908C174.271 61.3936 174.005 60.4456 174.005 59.2471ZM175.666 59.3906C175.666 60.1426 175.809 60.7305 176.097 61.1543C176.388 61.5736 176.801 61.7832 177.334 61.7832C178.013 61.7832 178.51 61.4801 178.824 60.874V57.7158C178.519 57.1234 178.027 56.8271 177.348 56.8271C176.81 56.8271 176.395 57.0413 176.103 57.4697C175.812 57.8936 175.666 58.5339 175.666 59.3906ZM182.047 59.2334C182.047 58.5088 182.191 57.8571 182.478 57.2783C182.765 56.695 183.168 56.2484 183.688 55.9385C184.207 55.624 184.804 55.4668 185.479 55.4668C186.477 55.4668 187.286 55.7881 187.906 56.4307C188.53 57.0732 188.867 57.9255 188.917 58.9873L188.924 59.377C188.924 60.1061 188.783 60.7578 188.5 61.332C188.222 61.9062 187.821 62.3506 187.297 62.665C186.778 62.9795 186.176 63.1367 185.492 63.1367C184.449 63.1367 183.613 62.7904 182.984 62.0977C182.359 61.4004 182.047 60.473 182.047 59.3154V59.2334ZM183.708 59.377C183.708 60.138 183.865 60.735 184.18 61.168C184.494 61.5964 184.932 61.8105 185.492 61.8105C186.053 61.8105 186.488 61.5918 186.798 61.1543C187.113 60.7168 187.27 60.0765 187.27 59.2334C187.27 58.486 187.108 57.8936 186.784 57.4561C186.465 57.0186 186.03 56.7998 185.479 56.7998C184.936 56.7998 184.506 57.0163 184.187 57.4492C183.868 57.8776 183.708 58.5202 183.708 59.377ZM192.01 55.6035L192.058 56.458C192.605 55.7972 193.323 55.4668 194.212 55.4668C195.752 55.4668 196.536 56.3486 196.563 58.1123V63H194.902V58.208C194.902 57.7386 194.799 57.3923 194.594 57.1689C194.394 56.9411 194.063 56.8271 193.603 56.8271C192.933 56.8271 192.434 57.1302 192.106 57.7363V63H190.445V55.6035H192.01ZM202.821 63C202.748 62.8587 202.685 62.6286 202.63 62.3096C202.101 62.861 201.454 63.1367 200.688 63.1367C199.946 63.1367 199.339 62.9248 198.87 62.501C198.401 62.0771 198.166 61.5531 198.166 60.9287C198.166 60.1403 198.458 59.5365 199.041 59.1172C199.629 58.6934 200.467 58.4814 201.557 58.4814H202.575V57.9961C202.575 57.6133 202.468 57.3079 202.254 57.0801C202.04 56.8477 201.714 56.7314 201.276 56.7314C200.898 56.7314 200.588 56.8271 200.347 57.0186C200.105 57.2054 199.984 57.4447 199.984 57.7363H198.323C198.323 57.3307 198.458 56.9525 198.727 56.6016C198.995 56.2461 199.36 55.9681 199.82 55.7676C200.285 55.5671 200.802 55.4668 201.372 55.4668C202.238 55.4668 202.928 55.6855 203.443 56.123C203.958 56.556 204.223 57.1667 204.236 57.9551V61.291C204.236 61.9564 204.33 62.4873 204.517 62.8838V63H202.821ZM200.996 61.8037C201.324 61.8037 201.632 61.724 201.919 61.5645C202.211 61.4049 202.429 61.1908 202.575 60.9219V59.5273H201.68C201.064 59.5273 200.602 59.6344 200.292 59.8486C199.982 60.0628 199.827 60.3659 199.827 60.7578C199.827 61.0768 199.932 61.332 200.142 61.5234C200.356 61.7103 200.641 61.8037 200.996 61.8037ZM208.198 53.8057V55.6035H209.503V56.834H208.198V60.9629C208.198 61.2454 208.252 61.4505 208.362 61.5781C208.476 61.7012 208.676 61.7627 208.963 61.7627C209.155 61.7627 209.348 61.7399 209.544 61.6943V62.9795C209.166 63.0843 208.801 63.1367 208.451 63.1367C207.174 63.1367 206.536 62.4326 206.536 61.0244V56.834H205.32V55.6035H206.536V53.8057H208.198ZM212.685 63H211.024V55.6035H212.685V63ZM210.922 53.6826C210.922 53.4274 211.001 53.2155 211.161 53.0469C211.325 52.8783 211.557 52.7939 211.858 52.7939C212.159 52.7939 212.391 52.8783 212.555 53.0469C212.719 53.2155 212.801 53.4274 212.801 53.6826C212.801 53.9333 212.719 54.1429 212.555 54.3115C212.391 54.4756 212.159 54.5576 211.858 54.5576C211.557 54.5576 211.325 54.4756 211.161 54.3115C211.001 54.1429 210.922 53.9333 210.922 53.6826ZM214.329 59.2334C214.329 58.5088 214.473 57.8571 214.76 57.2783C215.047 56.695 215.45 56.2484 215.97 55.9385C216.489 55.624 217.086 55.4668 217.761 55.4668C218.759 55.4668 219.568 55.7881 220.188 56.4307C220.812 57.0732 221.149 57.9255 221.199 58.9873L221.206 59.377C221.206 60.1061 221.065 60.7578 220.782 61.332C220.504 61.9062 220.103 62.3506 219.579 62.665C219.06 62.9795 218.458 63.1367 217.774 63.1367C216.731 63.1367 215.895 62.7904 215.266 62.0977C214.641 61.4004 214.329 60.473 214.329 59.3154V59.2334ZM215.99 59.377C215.99 60.138 216.147 60.735 216.462 61.168C216.776 61.5964 217.214 61.8105 217.774 61.8105C218.335 61.8105 218.77 61.5918 219.08 61.1543C219.395 60.7168 219.552 60.0765 219.552 59.2334C219.552 58.486 219.39 57.8936 219.066 57.4561C218.747 57.0186 218.312 56.7998 217.761 56.7998C217.218 56.7998 216.788 57.0163 216.469 57.4492C216.15 57.8776 215.99 58.5202 215.99 59.377ZM224.292 55.6035L224.34 56.458C224.887 55.7972 225.605 55.4668 226.494 55.4668C228.034 55.4668 228.818 56.3486 228.845 58.1123V63H227.184V58.208C227.184 57.7386 227.081 57.3923 226.876 57.1689C226.676 56.9411 226.345 56.8271 225.885 56.8271C225.215 56.8271 224.716 57.1302 224.388 57.7363V63H222.727V55.6035H224.292Z" fill="white"/>
<defs>
<clipPath id="clip0_2846_18116">
<rect width="30" height="20" fill="white" transform="translate(41 96)"/>
</clipPath>
<clipPath id="clip1_2846_18116">
<rect width="30" height="20" fill="white" transform="translate(77 96)"/>
</clipPath>
<clipPath id="clip2_2846_18116">
<rect width="30" height="20" fill="white" transform="translate(113 96)"/>
</clipPath>
<clipPath id="clip3_2846_18116">
<rect width="30" height="20" fill="white" transform="translate(149 96)"/>
</clipPath>
<clipPath id="clip4_2846_18116">
<rect width="30" height="20" fill="white" transform="translate(185 96)"/>
</clipPath>
<clipPath id="clip5_2846_18116">
<rect width="30" height="20" fill="white" transform="translate(221 96)"/>
</clipPath>
</defs>
</svg>
